<svg width="25" height="25" viewBox="0 0 25 25" fill="none" xmlns="http://www.w3.org/2000/svg">
<g clip-path="url(#clip0)">
<path d="M7.2915 25H9.37484V22.9167H7.2915V25ZM11.4582 25H13.5415V22.9167H11.4582V25ZM13.5415 2.08337H11.4582V12.5H13.5415V2.08337ZM17.2498 4.62504L15.7394 6.13546C17.5415 7.22921 18.7498 9.19796 18.7498 11.4584C18.7498 14.9063 15.9478 17.7084 12.4998 17.7084C9.05192 17.7084 6.24984 14.9063 6.24984 11.4584C6.24984 9.19796 7.45817 7.22921 9.24984 6.12504L7.74984 4.62504C5.58317 6.12504 4.1665 8.62504 4.1665 11.4584C4.1665 16.0625 7.89567 19.7917 12.4998 19.7917C17.104 19.7917 20.8332 16.0625 20.8332 11.4584C20.8332 8.62504 19.4165 6.12504 17.2498 4.62504ZM15.6248 25H17.7082V22.9167H15.6248V25Z" fill="#E40000"/>
</g>
<defs>
<clipPath id="clip0">
<rect width="25" height="25" fill="white"/>
</clipPath>
</defs>
</svg>
