<?xml version="1.0" encoding="utf-8"?>
<!-- Generator: Adobe Illustrator 24.1.2, SVG Export Plug-In . SVG Version: 6.00 Build 0)  -->
<svg version="1.1" id="Layer_1" xmlns="http://www.w3.org/2000/svg" xmlns:xlink="http://www.w3.org/1999/xlink" x="0px" y="0px"
	 viewBox="0 0 500 409.74" style="enable-background:new 0 0 500 409.74;" xml:space="preserve">
<style type="text/css">
	.st0{fill-rule:evenodd;clip-rule:evenodd;fill:#308062;}
	.st1{fill-rule:evenodd;clip-rule:evenodd;fill:#FFFFFF;}
	.st2{fill:#89181A;}
	.st3{fill:#010101;}
</style>
<path id="Rectangle_3_copy_2" class="st0" d="M0.55,0v159.14c0,138.27,111.68,250.36,249.45,250.36h0.01
	c137.76,0,249.45-112.09,249.45-250.36V0.01L0.55,0z"/>
<path id="Rectangle_3_copy" class="st1" d="M0.55,0v153.05c0,138.27,111.68,250.36,249.45,250.36h0.01
	c137.77,0,249.45-112.09,249.45-250.36V0.01L0.55,0z"/>
<g>
	<g id="XMLID_16_">
		<path id="XMLID_3_" class="st2" d="M264.77,157.03c-0.82,0.68-1.64,1.37-2.46,2.05c-0.83,0.67-1.58,1.37-2.57,1.97l-1.4,0.92
			c-0.46,0.31-0.92,0.62-1.41,0.84c-0.97,0.47-1.9,1.01-2.87,1.41c-0.99,0.36-1.95,0.76-2.92,1.06c-0.99,0.24-1.95,0.53-2.9,0.71
			c-0.97,0.13-1.9,0.31-2.82,0.39c-0.92,0.03-1.81,0.12-2.68,0.11c-0.86-0.05-1.7-0.04-2.49-0.12c-1.59-0.16-3.03-0.41-4.28-0.71
			c-1.25-0.31-2.32-0.64-3.19-0.96c-1.74-0.63-2.66-1.15-2.66-1.15s0.97,0.43,2.74,0.89c0.88,0.23,1.97,0.46,3.22,0.64
			c1.25,0.18,2.67,0.29,4.22,0.29c0.77,0.01,1.58-0.07,2.4-0.11c0.83-0.06,1.67-0.23,2.54-0.34c0.86-0.16,1.73-0.41,2.62-0.62
			c0.88-0.26,1.75-0.62,2.65-0.92c0.88-0.36,1.73-0.83,2.61-1.24c0.86-0.45,1.67-1.04,2.52-1.55c0.43-0.25,0.81-0.56,1.19-0.88
			l1.15-0.92c0.78-0.55,1.52-1.37,2.27-2.1c0.74-0.74,1.48-1.49,2.22-2.23c0.6-0.58,1.17-1.19,1.78-1.75
			c-5.24-5.28-9.45-11.43-19.62-17.28c-17.69-10.17-43.52-3.03-43.52-3.03l50.78,70.57l30.08-39.96
			c-6.98-1.98-11.41-4.67-15.01-7.76C266.2,155.78,265.52,156.44,264.77,157.03z"/>
		<path id="XMLID_34_" class="st2" d="M291.37,149.22c0,0-13.43-8-28.74,7.45s-32.5,6.89-32.5,6.89l-3.01,4.15l24.45,34.6
			L291.37,149.22z"/>
	</g>
	<g id="XMLID_18_">
		<rect id="XMLID_20_" x="247.34" y="213.37" class="st3" width="3.81" height="81.02"/>
		<path id="XMLID_24_" class="st3" d="M248.17,291.53h-0.83c0,0-4.88,18.96-41.86,18.96c0,0-4.59,1.22,5.19,4.87h40.49v-23.83
			H248.17z"/>
	</g>
	<g id="XMLID_14_">
		<rect id="XMLID_25_" x="251.15" y="213.37" class="st3" width="3.81" height="81.02"/>
		<path id="XMLID_22_" class="st3" d="M254.08,291.53h0.88c0,0,4.83,18.98,41.81,18.98c0,0,4.59,1.57-5.19,4.85h-40.44v-23.83
			H254.08z"/>
	</g>
	<g>
		<path class="st3" d="M92.67,301.89l-3.99,2.5c-0.17,0.1-0.37,0.06-0.47-0.11L75.49,284c-0.1-0.17-0.06-0.37,0.11-0.47
			c0.12-0.08,0.3-0.07,0.42,0.03l1.39,1.02c0.75,0.56,1.8,0.59,2.63,0.07l23.01-14.42c0.82-0.52,1.25-1.47,1.08-2.4l-0.32-1.69
			c-0.04-0.15,0.04-0.31,0.16-0.39c0.17-0.1,0.37-0.06,0.47,0.11l5.06,8.07c0.1,0.16,0.06,0.37-0.11,0.47
			c-0.12,0.08-0.3,0.07-0.42-0.03l-1.39-1.02c-0.75-0.56-1.8-0.59-2.63-0.07l-23.58,14.78c-0.33,0.21-0.42,0.61-0.21,0.94
			l7.02,11.19c0.69,1,1.87,1.52,3.05,1.3l1.18-0.22c0.15-0.04,0.31,0.04,0.39,0.16C92.88,301.58,92.83,301.79,92.67,301.89z"/>
		<path class="st3" d="M99.17,317.38c-0.11,0.09-0.25,0.08-0.34-0.03l-4.62-5.63c-0.09-0.11-0.08-0.25,0.03-0.34
			c0.07-0.06,0.18-0.09,0.28-0.04l1.15,0.63c0.62,0.37,1.38,0.31,1.95-0.15l15.96-13.09c0.56-0.46,0.77-1.2,0.53-1.88l-0.4-1.25
			c-0.02-0.11,0.02-0.21,0.1-0.27c0.11-0.09,0.25-0.08,0.34,0.03l4.62,5.63c0.09,0.11,0.08,0.25-0.03,0.34
			c-0.08,0.06-0.18,0.09-0.28,0.04l-1.15-0.63c-0.62-0.37-1.38-0.31-1.95,0.15L99.4,313.99c-0.56,0.46-0.77,1.2-0.53,1.88l0.39,1.25
			C99.29,317.22,99.25,317.32,99.17,317.38z"/>
		<path class="st3" d="M120.44,343.67c-3.38-0.33-4.05-5.19-3.86-8.49c-0.91-0.53-1.78-1.16-2.59-1.93
			c-5.18-4.92-5.39-13.16-0.47-18.34c4.92-5.18,13.16-5.39,18.33-0.47c5.18,4.92,5.39,13.16,0.47,18.33
			c-3.45,3.63-8.47,4.82-12.96,3.56c0.02,2.3,1.05,4.75,3.26,6.65C122.62,343,121.61,343.78,120.44,343.67z M119.35,334.46
			c3.91,0.97,8.16-0.69,10.94-3.61c3.85-4.05,5.51-10.38,0.4-15.23c-4.86-4.62-11.31-2.84-15.16,1.21
			c-2.98,3.13-4.37,7.91-2.75,11.92c0.55,0.06,2.34,0.21,3.24,0.54C118.24,329.99,119.31,331.88,119.35,334.46z M116.64,333.29
			c-0.04-1.37-0.34-2.4-1.45-3.12c-0.49-0.33-1.42-0.48-1.97-0.53c0.47,0.85,1.07,1.69,1.88,2.46
			C115.59,332.56,116.08,332.96,116.64,333.29z"/>
		<path class="st3" d="M163.41,338.57c0.12,0.08,0.15,0.21,0.07,0.34c-0.05,0.08-0.15,0.13-0.26,0.12l-1.28-0.27
			c-0.7-0.17-1.41,0.11-1.82,0.71l-8.28,12.4c-3.05,4.57-8.11,4.63-11.55,2.34c-1.78-1.19-3.07-2.92-3.57-4.89
			c-0.55-2.24-0.11-4.57,1.32-6.71l8.28-12.41c0.4-0.61,0.39-1.37-0.04-1.95l-0.74-1.08c-0.05-0.09-0.04-0.2,0.01-0.28
			c0.08-0.12,0.22-0.15,0.34-0.07l6.06,4.04c0.12,0.08,0.15,0.22,0.07,0.34c-0.05,0.08-0.15,0.13-0.26,0.12l-1.28-0.27
			c-0.7-0.18-1.41,0.11-1.82,0.71l-8.92,13.38c-2.16,3.23-0.82,6.22,1.48,7.76c2.3,1.54,6.59,2.29,8.74-0.94l8.92-13.37
			c0.4-0.61,0.39-1.38-0.04-1.95l-0.74-1.08c-0.05-0.09-0.04-0.2,0.01-0.28c0.08-0.12,0.21-0.15,0.34-0.07l5.05,3.37L163.41,338.57z
			"/>
		<path class="st3" d="M185.63,363.47c-2.95,6.5-10.66,9.41-17.17,6.46c-6.5-2.95-9.41-10.66-6.46-17.17
			c2.95-6.5,10.66-9.41,17.17-6.46C185.68,349.25,188.58,356.97,185.63,363.47z M183.07,362.31c2.31-5.09,1.8-11.61-4.62-14.52
			c-6.11-2.77-11.61,1.03-13.92,6.12c-2.31,5.09-1.18,11.89,4.62,14.52C175.03,371.09,180.76,367.39,183.07,362.31z"/>
		<path class="st3" d="M210.78,383.38c0.08,0.07,0.1,0.18,0.08,0.27c-0.04,0.14-0.16,0.21-0.3,0.17l-2.44-0.64
			c-1.64-0.43-2.91-1.71-3.35-3.49l-2.29-10.64c-0.06-0.17-0.22-0.31-0.41-0.36l-3.57-0.93c-0.28-0.07-0.58,0.1-0.65,0.38
			l-2.38,9.12c-0.18,0.71,0.08,1.43,0.68,1.83l1.05,0.78c0.08,0.07,0.1,0.18,0.08,0.27c-0.04,0.14-0.16,0.21-0.3,0.17l-7.05-1.84
			c-0.14-0.04-0.21-0.16-0.17-0.3c0.02-0.09,0.1-0.18,0.2-0.2l1.3-0.16c0.72-0.06,1.3-0.56,1.49-1.27l5.13-19.64
			c0.25-0.94-0.1-1.93-0.86-2.48l-0.76-0.55c-0.08-0.07-0.1-0.18-0.08-0.27c0.04-0.14,0.16-0.21,0.3-0.17l11.61,3.03
			c4.56,1.19,6.11,5.06,5.27,8.26c-0.69,2.63-3.69,5.46-7.87,4.77c-0.09-0.03-0.17,0.06-0.14,0.16l2.01,9.21
			c0.34,1.59,1.23,2.98,2.54,3.93l0.81,0.56L210.78,383.38z M205.22,367.77c2.96,0.77,4.78-0.81,5.57-3.82
			c0.7-2.68-0.03-5.28-2.99-6.05l-6.25-1.63c-0.28-0.07-0.58,0.1-0.65,0.38l-2.32,8.88c-0.07,0.28,0.1,0.58,0.38,0.65L205.22,367.77
			z"/>
		<path class="st3" d="M285.76,351.38c0.19-0.01,0.35,0.12,0.36,0.31c0.01,0.15-0.08,0.3-0.22,0.36l-1.08,0.52
			c-1.13,0.52-2.83,1.86-3.19,3.06l-8.75,30.39c-0.08,0.25-0.31,0.46-0.6,0.48l-0.68,0.05c-0.29,0.02-0.55-0.15-0.66-0.39
			l-6.56-14.52c-0.06-0.14-0.25-0.13-0.29,0.02l-4.39,15.32c-0.08,0.25-0.31,0.46-0.6,0.48l-0.68,0.05
			c-0.29,0.02-0.55-0.16-0.66-0.39l-13.05-28.76c-0.52-1.13-2.4-2.21-3.6-2.56l-1.15-0.36c-0.15-0.04-0.26-0.18-0.27-0.32
			c-0.01-0.19,0.12-0.35,0.31-0.36l9.74-0.71c0.19-0.01,0.35,0.12,0.36,0.31c0.01,0.15-0.08,0.3-0.22,0.36c0,0-0.14,0.06-0.33,0.17
			c-1.13,0.57-1.61,1.92-1.09,3.05l10.44,23.01c0.06,0.14,0.25,0.13,0.29-0.02l4.66-16.27c0.15-0.59,0.97-0.66,1.21-0.09l6.96,15.42
			c0.06,0.14,0.25,0.13,0.29-0.02l7-24.28c0.34-1.29-0.43-2.6-1.72-2.89c-0.15-0.04-0.25-0.03-0.25-0.03
			c-0.15-0.04-0.26-0.18-0.27-0.32c-0.01-0.19,0.12-0.35,0.31-0.36l8.14-0.59L285.76,351.38z"/>
		<path class="st3" d="M301.19,380.9c0.03,0.14-0.04,0.26-0.18,0.29l-7.09,1.7c-0.14,0.03-0.26-0.04-0.29-0.18
			c-0.02-0.09,0-0.2,0.08-0.27l1.07-0.76c0.6-0.39,0.88-1.11,0.71-1.82l-4.83-20.07c-0.17-0.71-0.74-1.22-1.46-1.3l-1.29-0.19
			c-0.11-0.02-0.18-0.11-0.2-0.2c-0.03-0.14,0.04-0.26,0.18-0.29l7.08-1.7c0.14-0.03,0.26,0.04,0.29,0.18c0.02,0.09,0,0.2-0.08,0.27
			l-1.07,0.76c-0.6,0.39-0.88,1.11-0.71,1.82l4.83,20.08c0.17,0.71,0.74,1.22,1.46,1.3l1.29,0.19
			C301.1,380.72,301.17,380.8,301.19,380.9z"/>
		<path class="st3" d="M331.66,370.35c0.11,0.01,0.19,0.08,0.22,0.18c0.05,0.14-0.01,0.26-0.14,0.31l-3.36,1.26
			c-0.14,0.05-0.31,0.01-0.45-0.09L306.7,358.2c-0.08-0.07-0.2,0.02-0.15,0.16l6.19,16.46c0.33,0.86,1.16,1.43,2.1,1.44l0.94,0.01
			c0.11,0.01,0.19,0.09,0.22,0.18c0.05,0.14-0.01,0.26-0.14,0.31l-5.68,2.14c-0.14,0.05-0.26-0.01-0.31-0.14
			c-0.03-0.09-0.02-0.2,0.05-0.28l0.7-0.63c0.7-0.63,0.94-1.65,0.59-2.56l-7.01-18.64c-0.34-0.91-1.2-1.52-2.13-1.53l-0.94-0.01
			c-0.11-0.01-0.19-0.08-0.22-0.18c-0.05-0.14,0.01-0.26,0.14-0.31l3.36-1.27c0.14-0.05,0.31-0.01,0.45,0.09l21.22,13.81
			c0.08,0.07,0.2-0.02,0.15-0.16l-6.19-16.46c-0.34-0.91-1.18-1.48-2.12-1.49l-0.94-0.01c-0.11-0.01-0.19-0.08-0.22-0.18
			c-0.05-0.14,0.01-0.26,0.14-0.31l5.68-2.14c0.14-0.05,0.26,0.01,0.31,0.14c0.04,0.09,0.02,0.2-0.05,0.28l-0.7,0.63
			c-0.7,0.63-0.94,1.65-0.59,2.56l7.01,18.64c0.34,0.91,1.2,1.52,2.13,1.53l0.94,0.01L331.66,370.35z"/>
		<path class="st3" d="M354.58,353.48c0.13-0.07,0.26-0.03,0.33,0.09l1.65,2.92c0.14,0.25,0.05,0.58-0.2,0.73l-15.64,8.85
			c-0.13,0.07-0.26,0.04-0.33-0.09c-0.05-0.08-0.05-0.19,0.01-0.28l0.8-0.95c0.47-0.55,0.54-1.31,0.18-1.95l-10.19-18.01
			c-0.36-0.63-1.05-0.97-1.76-0.84l-1.23,0.19c-0.11,0.01-0.2-0.05-0.25-0.14c-0.07-0.13-0.04-0.26,0.09-0.33l14.33-8.11
			c0.25-0.14,0.58-0.05,0.73,0.2l1.65,2.92c0.07,0.13,0.04,0.26-0.09,0.33c-0.08,0.05-0.19,0.05-0.28-0.01l-0.73-0.59
			c-0.73-0.59-1.73-0.69-2.56-0.28l-7.53,4.26c-0.25,0.14-0.35,0.47-0.2,0.73l3.08,5.46c0.14,0.25,0.47,0.34,0.73,0.2l5.33-3.01
			c0.85-0.48,1.32-1.42,1.19-2.34l-0.13-0.93c-0.01-0.11,0.05-0.2,0.14-0.25c0.13-0.07,0.26-0.04,0.33,0.09l2.99,5.28
			c0.07,0.13,0.03,0.26-0.09,0.33c-0.08,0.05-0.19,0.05-0.28-0.01l-0.73-0.59c-0.73-0.59-1.77-0.67-2.62-0.19l-5.33,3.01
			c-0.25,0.14-0.34,0.47-0.2,0.73l6.31,11.16c0.14,0.25,0.47,0.35,0.73,0.2l8.75-4.95c0.8-0.45,1.23-1.37,1.1-2.3l-0.13-0.93
			c-0.01-0.11,0.06-0.2,0.14-0.25L354.58,353.48z"/>
		<path class="st3" d="M373.49,299.46c0.14-0.13,0.35-0.13,0.48,0.01l3.28,3.38c0.13,0.14,0.13,0.35-0.01,0.48
			c-0.1,0.1-0.28,0.13-0.41,0.06l-1.09-0.5c-1.12-0.53-2.47-0.31-3.38,0.57l-3.56,3.45c-0.28,0.27-0.29,0.68-0.01,0.96l19.37,19.99
			c0.68,0.7,1.7,0.92,2.57,0.55l1.59-0.66c0.14-0.07,0.31-0.03,0.41,0.08c0.14,0.14,0.13,0.35-0.01,0.48l-6.84,6.63
			c-0.14,0.13-0.35,0.13-0.48-0.01c-0.1-0.1-0.13-0.28-0.06-0.41l0.71-1.57c0.39-0.85,0.2-1.89-0.47-2.58l-19.37-19.98
			c-0.27-0.28-0.68-0.29-0.96-0.01l-3.56,3.45c-0.91,0.88-1.17,2.21-0.67,3.36l0.46,1.11c0.07,0.14,0.03,0.31-0.08,0.41
			c-0.14,0.14-0.34,0.13-0.48-0.01l-3.28-3.38c-0.13-0.14-0.13-0.34,0.01-0.48l15.8-15.31L373.49,299.46z"/>
		<path class="st3" d="M406.86,311.76c0.11,0.09,0.13,0.23,0.03,0.34l-4.63,5.62c-0.09,0.11-0.23,0.13-0.34,0.03
			c-0.08-0.06-0.12-0.16-0.09-0.27l0.4-1.25c0.25-0.68,0.04-1.42-0.53-1.88l-15.93-13.12c-0.56-0.46-1.33-0.53-1.95-0.16l-1.15,0.63
			c-0.1,0.04-0.21,0.02-0.28-0.04c-0.11-0.09-0.13-0.23-0.03-0.34l4.63-5.62c0.09-0.11,0.23-0.13,0.34-0.03
			c0.08,0.06,0.12,0.16,0.1,0.27l-0.4,1.25c-0.25,0.68-0.04,1.42,0.53,1.88l15.93,13.12c0.56,0.46,1.33,0.53,1.95,0.16l1.15-0.63
			C406.68,311.67,406.78,311.7,406.86,311.76z"/>
		<path class="st3" d="M427.34,280.61c0.09-0.06,0.2-0.05,0.28,0c0.13,0.08,0.16,0.21,0.08,0.33l-3.8,6.16
			c-0.08,0.12-0.21,0.16-0.33,0.08c-0.08-0.05-0.14-0.14-0.13-0.25l0.17-0.92c0.17-0.92-0.23-1.85-1.01-2.34l-16.13-9.94
			c-0.13-0.08-0.27,0.06-0.21,0.16l8.97,17.11c0.06,0.09-0.02,0.22-0.13,0.21l-16.41-0.13c-0.11-0.01-0.17,0.18-0.04,0.26
			l13.94,8.59c0.79,0.48,1.79,0.42,2.54-0.14l0.75-0.57c0.09-0.06,0.2-0.05,0.28,0c0.12,0.08,0.16,0.21,0.08,0.33l-3.18,5.17
			c-0.08,0.12-0.21,0.16-0.33,0.08c-0.08-0.05-0.14-0.14-0.13-0.25l0.17-0.92c0.17-0.92-0.27-1.88-1.1-2.39l-16.95-10.45
			c-0.83-0.51-1.88-0.47-2.63,0.09l-0.75,0.57c-0.09,0.06-0.2,0.05-0.28,0c-0.13-0.08-0.16-0.21-0.08-0.33l1.86-3.02
			c0.1-0.17,0.29-0.28,0.46-0.29l18.1,0.26c0.11,0.01,0.18-0.11,0.13-0.21l-8.36-16.05c-0.07-0.16-0.05-0.38,0.05-0.54l2.47-4.01
			c0.08-0.12,0.21-0.16,0.33-0.08c0.08,0.05,0.14,0.14,0.13,0.25l-0.17,0.92c-0.17,0.92,0.27,1.88,1.1,2.39l16.95,10.45
			c0.83,0.51,1.88,0.47,2.63-0.09l0.75-0.57L427.34,280.61z"/>
		<path class="st3" d="M434.82,252.8c0.06-0.13,0.18-0.19,0.32-0.13l3.11,1.25c0.27,0.11,0.41,0.42,0.3,0.7l-6.72,16.66
			c-0.05,0.13-0.18,0.19-0.32,0.13c-0.09-0.04-0.16-0.12-0.17-0.23l0.03-1.24c0.03-0.72-0.39-1.36-1.07-1.64l-19.19-7.74
			c-0.68-0.27-1.42-0.1-1.9,0.44l-0.84,0.92c-0.08,0.07-0.19,0.08-0.28,0.04c-0.13-0.05-0.19-0.18-0.13-0.32l6.16-15.27
			c0.11-0.27,0.42-0.4,0.7-0.29l3.11,1.25c0.14,0.05,0.19,0.18,0.13,0.32c-0.04,0.09-0.12,0.16-0.23,0.17l-0.94-0.01
			c-0.94-0.01-1.79,0.54-2.18,1.37l-3.24,8.02c-0.11,0.27,0.03,0.59,0.29,0.7l5.81,2.34c0.27,0.11,0.59-0.03,0.69-0.3l2.29-5.67
			c0.36-0.9,0.15-1.93-0.53-2.57l-0.68-0.64c-0.07-0.08-0.08-0.19-0.04-0.28c0.05-0.14,0.18-0.19,0.31-0.13l5.63,2.27
			c0.14,0.05,0.19,0.18,0.13,0.32c-0.04,0.09-0.12,0.16-0.23,0.17l-0.94-0.01c-0.94-0.01-1.8,0.58-2.17,1.48l-2.29,5.67
			c-0.11,0.27,0.03,0.59,0.3,0.7l11.89,4.8c0.27,0.11,0.59-0.03,0.7-0.3l3.76-9.32c0.35-0.86,0.11-1.84-0.57-2.48l-0.68-0.64
			c-0.07-0.08-0.08-0.19-0.04-0.28L434.82,252.8z"/>
	</g>
	<path class="st3" d="M183.33,109.06l0.09,0.12l-3.71,2.33c0,0,40.55,46.24,56.4,85.27l11.29-7.53
		c-29.95-30.16-55.81-85.18-55.81-85.18l-3.71,2.33l-0.16-0.29L183.33,109.06z"/>
	<path class="st3" d="M181.42,106.59l1.91,2.47l4.39-2.96l-1.42-2.53c0,0,7.72-6.91-1.39-12.71c-9.11-5.8-35.84-38.18-35.84-38.18
		l0.71,1.08l-0.72-1.08c0,0,19.32,36.98,20.98,47.4C171.7,110.49,181.42,106.59,181.42,106.59z M176.02,96.7
		c1.39-1.9,4.02-2.52,5.88-1.37c1.85,1.15,2.23,3.62,0.84,5.52c-1.39,1.9-4.02,2.52-5.88,1.37
		C175.01,101.07,174.63,98.6,176.02,96.7z"/>
	<path class="st3" d="M265.82,221.99l-3.38-5.38c1.31-1.17,0.82-2.37,0.82-2.37l-10.09-15.08c0,0-3.09-4.91-6.63-5.96
		c-1.82-0.54-2.25-1.47-2.25-2.24l-5.02,3.39c0.63,0.38,1.15,1.16,0.93,2.78c-0.49,3.54,2.84,8.3,2.84,8.3l9.97,15.15
		c0,0,0.92,0.93,2.57,0.27l3.65,5.21c0,0-0.98,5.02,3.93,4.49c0,0,1.25-0.24,2.18-0.99c0.37-0.3,0.78-0.55,1.21-0.75
		c1.1-0.51,1.85-1.51,1.85-1.51C270.95,223.22,265.82,221.99,265.82,221.99z M250.72,210.69c-2.01,0-3.65-1.63-3.65-3.65
		s1.63-3.65,3.65-3.65s3.65,1.63,3.65,3.65S252.73,210.69,250.72,210.69z"/>
	<g>
		<path id="XMLID_8_" class="st3" d="M298.79,149.31l-3.49-2.41l-4.18-2.89l-1.21-0.84l-2.27-1.57c0,0-7.5,25.64-32.64,47.79
			l1.13,0.78l9.67,6.69C277.69,165.54,298.79,149.31,298.79,149.31z"/>
		<path id="XMLID_17_" class="st3" d="M295.32,129.61c-8.48,5.66-2.28,11.96-2.28,11.96l-1.68,2.6l3.7,2.56l2.02-2.36
			c0,0,8.26,3.7,10.57-6.23c2.3-9.93,22.48-45.28,22.48-45.28S303.8,123.96,295.32,129.61z M302.56,139.26
			c-1.36,1.97-4.06,2.46-6.03,1.1c-1.97-1.36-2.46-4.06-1.1-6.03c1.36-1.97,4.06-2.46,6.03-1.1
			C303.42,134.6,303.92,137.3,302.56,139.26z"/>
		<path class="st3" d="M256.75,190.57l0.8,0.57c0,0,1.15,2.47-2.04,3.52c-3.19,1.05-6.37,5.83-6.37,5.83L239,215.01
			c0,0-0.55,1.16,0.51,2.26l-3.42,5.17c0,0-4.61,1.25-2.71,5.11c0,0,0.37,0.91,1.84,1.88c1.16,0.93,2.51,1.13,2.51,1.13
			c4.27,0.42,3.82-4.33,3.82-4.33l3.63-5.01c1.39,0.6,2.28-0.3,2.28-0.3l10-14.56c0,0,3.47-4.68,3.33-8.04
			c-0.14-3.36,2.67-3.09,2.67-3.09l2,1.36c0,0,0.02-0.03,0.02-0.05L256.75,190.57z M250.71,210.77c-2.01-0.02-3.64-1.66-3.62-3.68
			c0.02-2.01,1.66-3.64,3.68-3.62s3.64,1.66,3.62,3.68C254.37,209.16,252.73,210.78,250.71,210.77z"/>
	</g>
</g>
</svg>
