<svg width="13" height="18" viewBox="0 0 13 18" fill="none" xmlns="http://www.w3.org/2000/svg">
<path d="M9.71389 4.875C9.29155 4.875 8.94918 5.21737 8.94918 5.63971V6.5C8.94918 6.60774 8.90638 6.71108 8.83019 6.78726C8.75401 6.86345 8.65067 6.90625 8.54293 6.90625C8.43519 6.90625 8.33185 6.86345 8.25567 6.78726C8.17948 6.71108 8.13668 6.60774 8.13668 6.5V5.63971C8.13668 5.21737 7.79431 4.875 7.37197 4.875H4.83888C4.41655 4.875 4.07418 5.21737 4.07418 5.63971V6.5C4.07418 6.60774 4.03138 6.71108 3.95519 6.78726C3.87901 6.86345 3.77567 6.90625 3.66793 6.90625C3.56018 6.90625 3.45685 6.86345 3.38067 6.78726C3.30448 6.71108 3.26168 6.60774 3.26168 6.5V5.63971C3.26168 5.21737 2.91931 4.875 2.49697 4.875H1.89253C1.49731 4.875 1.1672 5.17616 1.13103 5.56971L0.0767204 17.0403C0.035535 17.4884 0.388242 17.875 0.838216 17.875H11.3266C11.7755 17.875 12.1278 17.4902 12.0884 17.0431L11.0763 5.57249C11.0414 5.17774 10.7108 4.875 10.3145 4.875H9.71389ZM3.66793 8.53125C3.58758 8.53125 3.50904 8.50742 3.44223 8.46279C3.37542 8.41815 3.32335 8.3547 3.2926 8.28047C3.26185 8.20623 3.25381 8.12455 3.26949 8.04574C3.28516 7.96694 3.32385 7.89455 3.38067 7.83774C3.43748 7.78092 3.50987 7.74223 3.58867 7.72656C3.66748 7.71088 3.74916 7.71893 3.82339 7.74967C3.89763 7.78042 3.96108 7.83249 4.00571 7.8993C4.05035 7.96611 4.07418 8.04465 4.07418 8.125C4.07418 8.23274 4.03138 8.33608 3.95519 8.41226C3.87901 8.48845 3.77567 8.53125 3.66793 8.53125ZM8.54293 8.53125C8.46258 8.53125 8.38404 8.50742 8.31723 8.46279C8.25042 8.41815 8.19835 8.3547 8.1676 8.28047C8.13686 8.20623 8.12881 8.12455 8.14449 8.04574C8.16016 7.96694 8.19885 7.89455 8.25567 7.83774C8.31248 7.78092 8.38487 7.74223 8.46367 7.72656C8.54248 7.71088 8.62416 7.71893 8.69839 7.74967C8.77263 7.78042 8.83608 7.83249 8.88071 7.8993C8.92535 7.96611 8.94918 8.04465 8.94918 8.125C8.94918 8.23274 8.90638 8.33608 8.83019 8.41226C8.75401 8.48845 8.65067 8.53125 8.54293 8.53125ZM8.13668 2.84375C8.13668 2.30503 7.92267 1.78837 7.54174 1.40744C7.16081 1.02651 6.64415 0.8125 6.10543 0.8125C5.56671 0.8125 5.05005 1.02651 4.66912 1.40744C4.28819 1.78837 4.07418 2.30503 4.07418 2.84375V3.65625C4.07418 3.88062 3.89229 4.0625 3.66793 4.0625C3.44356 4.0625 3.26168 3.88062 3.26168 3.65625V2.84375C3.26168 2.08954 3.56129 1.36622 4.09459 0.832915C4.6279 0.299609 5.35122 0 6.10543 0C6.85964 0 7.58296 0.299609 8.11627 0.832915C8.64957 1.36622 8.94918 2.08954 8.94918 2.84375V3.65625C8.94918 3.88062 8.76729 4.0625 8.54293 4.0625C8.31856 4.0625 8.13668 3.88062 8.13668 3.65625V2.84375Z" fill="white" fill-opacity="0.58"/>
</svg>
