<svg width="17" height="25" viewBox="0 0 17 25" fill="none" xmlns="http://www.w3.org/2000/svg">
<path d="M13.281 6.81818C12.8587 6.81818 12.5163 7.16055 12.5163 7.58289V9.09091C12.5163 9.2416 12.4565 9.38612 12.3499 9.49267C12.2434 9.59923 12.0988 9.65909 11.9482 9.65909C11.7975 9.65909 11.6529 9.59923 11.5464 9.49267C11.4398 9.38612 11.38 9.2416 11.38 9.09091V7.58289C11.38 7.16055 11.0376 6.81818 10.6153 6.81818H6.46286C6.04052 6.81818 5.69815 7.16055 5.69815 7.58289V9.09091C5.69815 9.2416 5.63829 9.38612 5.53174 9.49267C5.42518 9.59923 5.28066 9.65909 5.12997 9.65909C4.97928 9.65909 4.83476 9.59923 4.72821 9.49267C4.62165 9.38612 4.56179 9.2416 4.56179 9.09091V7.58289C4.56179 7.16055 4.21942 6.81818 3.79708 6.81818H2.36881C1.97359 6.81818 1.64348 7.11934 1.60731 7.5129L0.0767204 24.1653C0.035535 24.6134 0.388242 25 0.838217 25H16.1743C16.6232 25 16.9755 24.6152 16.936 24.1681L15.4667 7.51568C15.4319 7.12092 15.1013 6.81818 14.705 6.81818H13.281ZM5.12997 11.9318C5.0176 11.9318 4.90774 11.8985 4.81431 11.8361C4.72087 11.7736 4.64804 11.6849 4.60504 11.5811C4.56203 11.4772 4.55078 11.363 4.57271 11.2528C4.59463 11.1426 4.64874 11.0413 4.72821 10.9619C4.80767 10.8824 4.90891 10.8283 5.01912 10.8064C5.12934 10.7844 5.24358 10.7957 5.3474 10.8387C5.45123 10.8817 5.53997 10.9545 5.6024 11.048C5.66483 11.1414 5.69815 11.2513 5.69815 11.3636C5.69815 11.5143 5.63829 11.6588 5.53174 11.7654C5.42518 11.872 5.28066 11.9318 5.12997 11.9318ZM11.9482 11.9318C11.8358 11.9318 11.7259 11.8985 11.6325 11.8361C11.5391 11.7736 11.4662 11.6849 11.4232 11.5811C11.3802 11.4772 11.369 11.363 11.3909 11.2528C11.4128 11.1426 11.4669 11.0413 11.5464 10.9619C11.6259 10.8824 11.7271 10.8283 11.8373 10.8064C11.9475 10.7844 12.0618 10.7957 12.1656 10.8387C12.2694 10.8817 12.3581 10.9545 12.4206 11.048C12.483 11.1414 12.5163 11.2513 12.5163 11.3636C12.5163 11.5143 12.4565 11.6588 12.3499 11.7654C12.2434 11.872 12.0988 11.9318 11.9482 11.9318ZM11.38 3.97727C11.38 3.22382 11.0807 2.50122 10.5479 1.96845C10.0151 1.43567 9.29252 1.13636 8.53906 1.13636C7.78561 1.13636 7.06301 1.43567 6.53024 1.96845C5.99746 2.50122 5.69815 3.22382 5.69815 3.97727V5.11364C5.69815 5.42743 5.44377 5.68182 5.12997 5.68182C4.81617 5.68182 4.56179 5.42743 4.56179 5.11364V3.97727C4.56179 2.92243 4.98082 1.9108 5.72671 1.16492C6.47259 0.419033 7.48422 0 8.53906 0C9.5939 0 10.6055 0.419033 11.3514 1.16492C12.0973 1.9108 12.5163 2.92243 12.5163 3.97727V5.11364C12.5163 5.42743 12.262 5.68182 11.9482 5.68182C11.6344 5.68182 11.38 5.42743 11.38 5.11364V3.97727Z" fill="#2D7F61"/>
</svg>
