<svg width="27" height="27" viewBox="0 0 27 27" fill="none" xmlns="http://www.w3.org/2000/svg">
<path d="M26.0097 5.0835H7.75677C7.47818 5.0835 7.2125 5.20067 7.02466 5.40665L0.258186 12.8333C-0.0860621 13.2112 -0.0860621 13.7888 0.258186 14.1671L7.02466 21.5937C7.21245 21.7997 7.47818 21.9168 7.75677 21.9168H26.0097C26.5567 21.9168 26.9999 21.4735 26.9999 20.927V6.07374C27 5.52678 26.5567 5.0835 26.0097 5.0835ZM25.0196 19.9364H8.1941L2.33006 13.5L8.1941 7.06356H25.0195V19.9364H25.0196Z" fill="white"/>
<path d="M20.8966 10.089C20.5071 9.70475 19.8806 9.70838 19.4961 10.0976L14.1489 15.5107C13.7647 15.8999 13.7683 16.5267 14.1575 16.9113C14.3506 17.1017 14.6018 17.1968 14.8533 17.1968C15.1084 17.1968 15.3642 17.0984 15.558 16.9027L20.9052 11.4895C21.2894 11.1003 21.2858 10.4735 20.8966 10.089Z" fill="white"/>
<path d="M20.9296 15.4689L15.5167 10.1221C15.1276 9.73783 14.5004 9.74179 14.1166 10.1306C13.7321 10.5198 13.7357 11.1466 14.1248 11.5312L19.5377 16.8783C19.7308 17.0688 19.9819 17.1638 20.2334 17.1638C20.4886 17.1638 20.7444 17.0654 20.9378 16.8694C21.3224 16.4802 21.3187 15.8534 20.9296 15.4689Z" fill="white"/>
</svg>
