<svg width="23" height="23" viewBox="0 0 23 23" fill="none" xmlns="http://www.w3.org/2000/svg">
<path d="M22.5221 17.2478L14.3973 2.31231C13.0919 0.114684 9.90981 0.111764 8.60267 2.31231L0.478278 17.2478C-0.856171 19.4934 0.759444 22.337 3.37493 22.337H19.6248C22.2381 22.337 23.8566 19.4956 22.5221 17.2478ZM11.5 19.6417C10.7571 19.6417 10.1523 19.0369 10.1523 18.294C10.1523 17.5511 10.7571 16.9464 11.5 16.9464C12.2429 16.9464 12.8477 17.5511 12.8477 18.294C12.8477 19.0369 12.2429 19.6417 11.5 19.6417ZM12.8477 14.2511C12.8477 14.994 12.2429 15.5987 11.5 15.5987C10.7571 15.5987 10.1523 14.994 10.1523 14.2511V7.51278C10.1523 6.76986 10.7571 6.16512 11.5 6.16512C12.2429 6.16512 12.8477 6.76986 12.8477 7.51278V14.2511Z" fill="#FD5181"/>
</svg>
