<svg width="16" height="16" viewBox="0 0 16 16" fill="none" xmlns="http://www.w3.org/2000/svg">
<path d="M15.2313 9.86563L13.9 9.09688C14.0344 8.37188 14.0344 7.62813 13.9 6.90313L15.2313 6.13438C15.3844 6.04688 15.4532 5.86563 15.4032 5.69688C15.0563 4.58438 14.4657 3.57813 13.6938 2.74063C13.5751 2.6125 13.3813 2.58125 13.2313 2.66875L11.9 3.4375C11.3407 2.95625 10.6969 2.58438 10 2.34063V0.806252C10 0.631252 9.87817 0.478127 9.7063 0.440627C8.55943 0.184377 7.38443 0.196877 6.2938 0.440627C6.12193 0.478127 6.00005 0.631252 6.00005 0.806252V2.34375C5.3063 2.59063 4.66255 2.9625 4.10005 3.44063L2.77193 2.67188C2.6188 2.58438 2.42818 2.6125 2.30943 2.74375C1.53755 3.57813 0.946926 4.58438 0.600051 5.7C0.546926 5.86875 0.618801 6.05 0.771926 6.1375L2.10318 6.90625C1.9688 7.63125 1.9688 8.375 2.10318 9.1L0.771926 9.86875C0.618801 9.95625 0.550051 10.1375 0.600051 10.3063C0.946926 11.4188 1.53755 12.425 2.30943 13.2625C2.42818 13.3906 2.62193 13.4219 2.77193 13.3344L4.10318 12.5656C4.66255 13.0469 5.3063 13.4188 6.00318 13.6625V15.2C6.00318 15.375 6.12505 15.5281 6.29693 15.5656C7.4438 15.8219 8.6188 15.8094 9.70942 15.5656C9.8813 15.5281 10.0032 15.375 10.0032 15.2V13.6625C10.6969 13.4156 11.3407 13.0438 11.9032 12.5656L13.2344 13.3344C13.3875 13.4219 13.5782 13.3938 13.6969 13.2625C14.4688 12.4281 15.0594 11.4219 15.4063 10.3063C15.4532 10.1344 15.3844 9.95313 15.2313 9.86563ZM8.00005 10.5C6.62193 10.5 5.50005 9.37813 5.50005 8C5.50005 6.62188 6.62193 5.5 8.00005 5.5C9.37818 5.5 10.5 6.62188 10.5 8C10.5 9.37813 9.37818 10.5 8.00005 10.5Z" fill="white" fill-opacity="0.58"/>
</svg>
