<svg width="20" height="21" viewBox="0 0 20 21" fill="none" xmlns="http://www.w3.org/2000/svg">
<path d="M12.7488 15.2524L9.37526 12.7535C10.4998 11.8789 11.2495 10.6294 11.2495 9.13007V8.1305C11.2495 5.75651 9.5002 3.63242 7.12622 3.50748C4.62729 3.38253 2.5032 5.38167 2.5032 7.8806V9.13007C2.5032 10.6294 3.25288 11.8789 4.3774 12.7535L1.00384 15.3774C0.379112 15.8772 0.00427246 16.6269 0.00427246 17.3765V19.7505C0.00427246 20.5002 0.504058 21 1.25374 21H12.4989C13.2486 21 13.7484 20.5002 13.7484 19.7505V17.2516C13.7484 16.5019 13.3735 15.7522 12.7488 15.2524Z" fill="#FDCC0C"/>
<path d="M18.8711 9.00514L16.6221 7.50579C17.1219 7.006 17.4967 6.25632 17.4967 5.3817V4.25718C17.4967 2.75782 16.3722 1.25846 14.8728 1.00857C13.3735 0.758678 12.124 1.6333 11.4993 2.75782C12.8737 4.00729 13.7483 5.75654 13.7483 7.75568V9.00514C13.7483 10.1297 13.4984 11.2542 12.9986 12.1288C12.9986 12.1288 14.498 13.2533 14.498 13.3783H18.7462C19.4958 13.3783 19.9956 12.8785 19.9956 12.1288V11.1292C19.9956 10.2546 19.6208 9.50493 18.8711 9.00514Z" fill="#FDCC0C"/>
</svg>
