<svg width="33" height="20" viewBox="0 0 33 20" fill="none" xmlns="http://www.w3.org/2000/svg">
<path d="M33 5.2858V17.3738C33 18.7137 31.9269 19.8 30.6032 19.8H2.35449C1.05436 19.8002 0.000245772 18.7335 0 17.4175C0 17.4029 0.000163848 17.3883 0.000409619 17.3738V2.42625C-0.0232664 1.11042 1.01135 0.0242979 2.31124 0.000414416C2.32565 0.00016563 2.33999 0 2.35441 0H30.6031C31.9268 0 32.9999 1.08628 32.9999 2.42625V5.2858H33Z" fill="#2D7F61"/>
<path d="M28.6769 17.2434C29.6224 17.2434 30.3889 16.4675 30.3889 15.5104C30.3889 14.5533 29.6224 13.7773 28.6769 13.7773C27.7314 13.7773 26.9648 14.5533 26.9648 15.5104C26.9648 16.4675 27.7314 17.2434 28.6769 17.2434Z" fill="white"/>
<path d="M4.2804 5.97928C5.22594 5.97928 5.99245 5.20336 5.99245 4.24623C5.99245 3.28909 5.22594 2.51318 4.2804 2.51318C3.33487 2.51318 2.56836 3.28909 2.56836 4.24623C2.56836 5.20336 3.33487 5.97928 4.2804 5.97928Z" fill="white"/>
<path d="M16.4669 4.31201C13.4371 4.31201 10.978 6.8012 10.978 9.86824C10.978 12.9353 13.4371 15.4245 16.4669 15.4245C19.4968 15.4245 21.9558 12.9353 21.9558 9.86824C21.9558 6.8012 19.4968 4.31201 16.4669 4.31201ZM17.2409 13.252V14.3132H15.7753V13.2409C14.8367 13.0408 14.0408 12.4297 13.9805 11.3518H15.0563C15.1112 11.9352 15.5064 12.3908 16.5108 12.3908C17.5867 12.3908 17.8282 11.8463 17.8282 11.5073C17.8282 11.0462 17.5867 10.6128 16.3626 10.3183C15.0014 9.98492 14.0683 9.41819 14.0683 8.27916C14.0683 7.32349 14.8312 6.70119 15.7753 6.49561V5.42326H17.2409V6.50672C18.2618 6.75675 18.7723 7.54018 18.8052 8.39029H17.7294C17.7019 7.77354 17.3781 7.35127 16.5108 7.35127C15.6875 7.35127 15.1935 7.72909 15.1935 8.26249C15.1935 8.72921 15.5503 9.03481 16.659 9.32373C17.7678 9.61266 18.9534 10.096 18.9534 11.4962C18.9479 12.513 18.1959 13.0686 17.2409 13.252Z" fill="white"/>
</svg>
