<svg width="34" height="34" viewBox="0 0 34 34" fill="none" xmlns="http://www.w3.org/2000/svg">
<path d="M28.1562 12.75V13.8125C28.1562 13.9534 28.1003 14.0885 28.0007 14.1882C27.901 14.2878 27.7659 14.3438 27.625 14.3438C27.4841 14.3438 27.349 14.2878 27.2493 14.1882C27.1497 14.0885 27.0938 13.9534 27.0938 13.8125V12.75H24.5801L25.7052 25.5H31.8101L30.339 12.75H28.1562ZM27.625 16.4688C27.5199 16.4688 27.4172 16.4376 27.3299 16.3792C27.2425 16.3208 27.1744 16.2379 27.1342 16.1408C27.094 16.0437 27.0835 15.9369 27.104 15.8339C27.1245 15.7308 27.1751 15.6361 27.2493 15.5618C27.3236 15.4876 27.4183 15.437 27.5214 15.4165C27.6244 15.396 27.7312 15.4065 27.8283 15.4467C27.9254 15.4869 28.0083 15.555 28.0667 15.6424C28.1251 15.7297 28.1562 15.8324 28.1562 15.9375C28.1562 16.0784 28.1003 16.2135 28.0007 16.3132C27.901 16.4128 27.7659 16.4688 27.625 16.4688ZM20.7188 11.6875V13.8125C20.7188 13.9534 20.6628 14.0885 20.5632 14.1882C20.4635 14.2878 20.3284 14.3438 20.1875 14.3438C20.0466 14.3438 19.9115 14.2878 19.8118 14.1882C19.7122 14.0885 19.6562 13.9534 19.6562 13.8125V11.6875H14.3438V13.8125C14.3438 13.9534 14.2878 14.0885 14.1882 14.1882C14.0885 14.2878 13.9534 14.3438 13.8125 14.3438C13.6716 14.3438 13.5365 14.2878 13.4368 14.1882C13.3372 14.0885 13.2812 13.9534 13.2812 13.8125V11.6875H10.5785L9.01598 28.6875H24.9198L23.4198 11.6875H20.7188ZM13.8125 16.4688C13.7074 16.4688 13.6047 16.4376 13.5174 16.3792C13.43 16.3208 13.3619 16.2379 13.3217 16.1408C13.2815 16.0437 13.271 15.9369 13.2915 15.8339C13.312 15.7308 13.3626 15.6361 13.4368 15.5618C13.5111 15.4876 13.6058 15.437 13.7089 15.4165C13.8119 15.396 13.9187 15.4065 14.0158 15.4467C14.1129 15.4869 14.1958 15.555 14.2542 15.6424C14.3126 15.7297 14.3438 15.8324 14.3438 15.9375C14.3438 16.0784 14.2878 16.2135 14.1882 16.3132C14.0885 16.4128 13.9534 16.4688 13.8125 16.4688ZM20.1875 16.4688C20.0824 16.4688 19.9797 16.4376 19.8924 16.3792C19.805 16.3208 19.7369 16.2379 19.6967 16.1408C19.6565 16.0437 19.646 15.9369 19.6665 15.8339C19.687 15.7308 19.7376 15.6361 19.8118 15.5618C19.8861 15.4876 19.9808 15.437 20.0839 15.4165C20.1869 15.396 20.2937 15.4065 20.3908 15.4467C20.4879 15.4869 20.5708 15.555 20.6292 15.6424C20.6876 15.7297 20.7188 15.8324 20.7188 15.9375C20.7188 16.0784 20.6628 16.2135 20.5632 16.3132C20.4635 16.4128 20.3284 16.4688 20.1875 16.4688ZM6.90625 12.75V13.8125C6.90625 13.9534 6.85028 14.0885 6.75065 14.1882C6.65102 14.2878 6.5159 14.3438 6.375 14.3438C6.2341 14.3438 6.09898 14.2878 5.99935 14.1882C5.89972 14.0885 5.84375 13.9534 5.84375 13.8125V12.75H3.66098L2.18988 25.5H8.24188L9.41375 12.75H6.90625ZM6.375 16.4688C6.26993 16.4688 6.16722 16.4376 6.07985 16.3792C5.99249 16.3208 5.9244 16.2379 5.88419 16.1408C5.84398 16.0437 5.83346 15.9369 5.85396 15.8339C5.87446 15.7308 5.92505 15.6361 5.99935 15.5618C6.07365 15.4876 6.16831 15.437 6.27136 15.4165C6.37441 15.396 6.48123 15.4065 6.5783 15.4467C6.67537 15.4869 6.75834 15.555 6.81672 15.6424C6.87509 15.7297 6.90625 15.8324 6.90625 15.9375C6.90625 16.0784 6.85028 16.2135 6.75065 16.3132C6.65102 16.4128 6.5159 16.4688 6.375 16.4688ZM11.1562 10.625C11.1562 10.0614 10.9324 9.52091 10.5339 9.1224C10.1353 8.72388 9.59484 8.5 9.03125 8.5C8.46767 8.5 7.92716 8.72388 7.52865 9.1224C7.13013 9.52091 6.90625 10.0614 6.90625 10.625V11.6875H5.84375V10.625C5.84375 9.77962 6.17958 8.96887 6.77735 8.3711C7.37512 7.77332 8.18587 7.4375 9.03125 7.4375C9.87663 7.4375 10.6874 7.77332 11.2852 8.3711C11.8829 8.96887 12.2188 9.77962 12.2188 10.625H11.1562ZM24.9688 8.5C24.4054 8.50063 23.8652 8.72472 23.4668 9.1231C23.0685 9.52147 22.8444 10.0616 22.8438 10.625H21.7812C21.7812 9.77962 22.1171 8.96887 22.7148 8.3711C23.3126 7.77332 24.1234 7.4375 24.9688 7.4375C25.8141 7.4375 26.6249 7.77332 27.2227 8.3711C27.8204 8.96887 28.1562 9.77962 28.1562 10.625V11.6875H27.0938V10.625C27.0931 10.0616 26.869 9.52147 26.4707 9.1231C26.0723 8.72472 25.5321 8.50063 24.9688 8.5ZM19.6562 9.03125C19.6562 8.32677 19.3764 7.65114 18.8783 7.153C18.3801 6.65485 17.7045 6.375 17 6.375C16.2955 6.375 15.6199 6.65485 15.1217 7.153C14.6236 7.65114 14.3438 8.32677 14.3438 9.03125V10.625H13.2812V9.03125C13.2812 8.04498 13.673 7.0991 14.3704 6.4017C15.0678 5.7043 16.0137 5.3125 17 5.3125C17.9863 5.3125 18.9322 5.7043 19.6296 6.4017C20.327 7.0991 20.7188 8.04498 20.7188 9.03125V10.625H19.6562V9.03125Z" fill="#4AB8FF"/>
</svg>
