<svg width="38" height="37" viewBox="0 0 38 37" fill="none" xmlns="http://www.w3.org/2000/svg">
<g filter="url(#filter0_d)">
<path d="M30.1562 12.75V13.8125C30.1562 13.9534 30.1003 14.0885 30.0007 14.1882C29.901 14.2878 29.7659 14.3438 29.625 14.3438C29.4841 14.3438 29.349 14.2878 29.2493 14.1882C29.1497 14.0885 29.0938 13.9534 29.0938 13.8125V12.75H26.5801L27.7052 25.5H33.8101L32.339 12.75H30.1562ZM29.625 16.4688C29.5199 16.4688 29.4172 16.4376 29.3299 16.3792C29.2425 16.3208 29.1744 16.2379 29.1342 16.1408C29.094 16.0437 29.0835 15.9369 29.104 15.8339C29.1245 15.7308 29.1751 15.6361 29.2493 15.5618C29.3236 15.4876 29.4183 15.437 29.5214 15.4165C29.6244 15.396 29.7312 15.4065 29.8283 15.4467C29.9254 15.4869 30.0083 15.555 30.0667 15.6424C30.1251 15.7297 30.1562 15.8324 30.1562 15.9375C30.1562 16.0784 30.1003 16.2135 30.0007 16.3132C29.901 16.4128 29.7659 16.4688 29.625 16.4688ZM22.7188 11.6875V13.8125C22.7188 13.9534 22.6628 14.0885 22.5632 14.1882C22.4635 14.2878 22.3284 14.3438 22.1875 14.3438C22.0466 14.3438 21.9115 14.2878 21.8118 14.1882C21.7122 14.0885 21.6562 13.9534 21.6562 13.8125V11.6875H16.3438V13.8125C16.3438 13.9534 16.2878 14.0885 16.1882 14.1882C16.0885 14.2878 15.9534 14.3438 15.8125 14.3438C15.6716 14.3438 15.5365 14.2878 15.4368 14.1882C15.3372 14.0885 15.2812 13.9534 15.2812 13.8125V11.6875H12.5785L11.016 28.6875H26.9198L25.4198 11.6875H22.7188ZM15.8125 16.4688C15.7074 16.4688 15.6047 16.4376 15.5174 16.3792C15.43 16.3208 15.3619 16.2379 15.3217 16.1408C15.2815 16.0437 15.271 15.9369 15.2915 15.8339C15.312 15.7308 15.3626 15.6361 15.4368 15.5618C15.5111 15.4876 15.6058 15.437 15.7089 15.4165C15.8119 15.396 15.9187 15.4065 16.0158 15.4467C16.1129 15.4869 16.1958 15.555 16.2542 15.6424C16.3126 15.7297 16.3438 15.8324 16.3438 15.9375C16.3438 16.0784 16.2878 16.2135 16.1882 16.3132C16.0885 16.4128 15.9534 16.4688 15.8125 16.4688ZM22.1875 16.4688C22.0824 16.4688 21.9797 16.4376 21.8924 16.3792C21.805 16.3208 21.7369 16.2379 21.6967 16.1408C21.6565 16.0437 21.646 15.9369 21.6665 15.8339C21.687 15.7308 21.7376 15.6361 21.8118 15.5618C21.8861 15.4876 21.9808 15.437 22.0839 15.4165C22.1869 15.396 22.2937 15.4065 22.3908 15.4467C22.4879 15.4869 22.5708 15.555 22.6292 15.6424C22.6876 15.7297 22.7188 15.8324 22.7188 15.9375C22.7188 16.0784 22.6628 16.2135 22.5632 16.3132C22.4635 16.4128 22.3284 16.4688 22.1875 16.4688ZM8.90625 12.75V13.8125C8.90625 13.9534 8.85028 14.0885 8.75065 14.1882C8.65102 14.2878 8.5159 14.3438 8.375 14.3438C8.2341 14.3438 8.09898 14.2878 7.99935 14.1882C7.89972 14.0885 7.84375 13.9534 7.84375 13.8125V12.75H5.66098L4.18988 25.5H10.2419L11.4138 12.75H8.90625ZM8.375 16.4688C8.26993 16.4688 8.16722 16.4376 8.07985 16.3792C7.99249 16.3208 7.9244 16.2379 7.88419 16.1408C7.84398 16.0437 7.83346 15.9369 7.85396 15.8339C7.87446 15.7308 7.92505 15.6361 7.99935 15.5618C8.07365 15.4876 8.16831 15.437 8.27136 15.4165C8.37441 15.396 8.48123 15.4065 8.5783 15.4467C8.67537 15.4869 8.75834 15.555 8.81672 15.6424C8.87509 15.7297 8.90625 15.8324 8.90625 15.9375C8.90625 16.0784 8.85028 16.2135 8.75065 16.3132C8.65102 16.4128 8.5159 16.4688 8.375 16.4688ZM13.1562 10.625C13.1562 10.0614 12.9324 9.52091 12.5339 9.1224C12.1353 8.72388 11.5948 8.5 11.0313 8.5C10.4677 8.5 9.92716 8.72388 9.52865 9.1224C9.13013 9.52091 8.90625 10.0614 8.90625 10.625V11.6875H7.84375V10.625C7.84375 9.77962 8.17958 8.96887 8.77735 8.3711C9.37512 7.77332 10.1859 7.4375 11.0313 7.4375C11.8766 7.4375 12.6874 7.77332 13.2852 8.3711C13.8829 8.96887 14.2188 9.77962 14.2188 10.625H13.1562ZM26.9688 8.5C26.4054 8.50063 25.8652 8.72472 25.4668 9.1231C25.0685 9.52147 24.8444 10.0616 24.8438 10.625H23.7812C23.7812 9.77962 24.1171 8.96887 24.7148 8.3711C25.3126 7.77332 26.1234 7.4375 26.9688 7.4375C27.8141 7.4375 28.6249 7.77332 29.2227 8.3711C29.8204 8.96887 30.1562 9.77962 30.1562 10.625V11.6875H29.0938V10.625C29.0931 10.0616 28.869 9.52147 28.4707 9.1231C28.0723 8.72472 27.5321 8.50063 26.9688 8.5ZM21.6562 9.03125C21.6562 8.32677 21.3764 7.65114 20.8783 7.153C20.3801 6.65485 19.7045 6.375 19 6.375C18.2955 6.375 17.6199 6.65485 17.1217 7.153C16.6236 7.65114 16.3438 8.32677 16.3438 9.03125V10.625H15.2812V9.03125C15.2812 8.04498 15.673 7.0991 16.3704 6.4017C17.0678 5.7043 18.0137 5.3125 19 5.3125C19.9863 5.3125 20.9322 5.7043 21.6296 6.4017C22.327 7.0991 22.7188 8.04498 22.7188 9.03125V10.625H21.6562V9.03125Z" fill="#4AB8FF"/>
</g>
<defs>
<filter id="filter0_d" x="-2" y="0" width="42" height="42" filterUnits="userSpaceOnUse" color-interpolation-filters="sRGB">
<feFlood flood-opacity="0" result="BackgroundImageFix"/>
<feColorMatrix in="SourceAlpha" type="matrix" values="0 0 0 0 0 0 0 0 0 0 0 0 0 0 0 0 0 0 127 0"/>
<feOffset dy="4"/>
<feGaussianBlur stdDeviation="2"/>
<feColorMatrix type="matrix" values="0 0 0 0 0 0 0 0 0 0 0 0 0 0 0 0 0 0 0.25 0"/>
<feBlend mode="normal" in2="BackgroundImageFix" result="effect1_dropShadow"/>
<feBlend mode="normal" in="SourceGraphic" in2="effect1_dropShadow" result="shape"/>
</filter>
</defs>
</svg>
