<svg width="62" height="10" viewBox="0 0 62 10" fill="none" xmlns="http://www.w3.org/2000/svg">
<path d="M4.93867 9.18C3.74667 9.18 2.73067 8.776 1.89067 7.968C1.05867 7.16 0.642672 6.088 0.642672 4.752C0.642672 3.424 1.06667 2.352 1.91467 1.536C2.76267 0.72 3.76667 0.312 4.92667 0.312C5.95067 0.312 6.79067 0.572 7.44667 1.092C8.11067 1.612 8.54667 2.272 8.75467 3.072L7.39867 3.528C7.26267 2.976 6.98667 2.528 6.57067 2.184C6.15467 1.84 5.60667 1.668 4.92667 1.668C4.16667 1.668 3.50667 1.94 2.94667 2.484C2.39467 3.02 2.11867 3.776 2.11867 4.752C2.11867 5.704 2.39467 6.452 2.94667 6.996C3.49867 7.532 4.16267 7.8 4.93867 7.8C5.60267 7.8 6.15067 7.62 6.58267 7.26C7.01467 6.9 7.31067 6.456 7.47067 5.928L8.79067 6.36C8.58267 7.152 8.14267 7.82 7.47067 8.364C6.80667 8.908 5.96267 9.18 4.93867 9.18ZM25.7677 9L24.9637 6.864H21.3637L20.5717 9H19.0477L22.3597 0.491999H24.0277L27.3397 9H25.7677ZM23.1637 2.052L21.8677 5.532H24.4597L23.1637 2.052ZM39.919 4.404H41.419C41.875 4.404 42.231 4.288 42.487 4.056C42.751 3.816 42.883 3.496 42.883 3.096C42.883 2.688 42.751 2.364 42.487 2.124C42.231 1.884 41.875 1.764 41.419 1.764H39.919V4.404ZM41.635 5.676H39.919V9H38.479V0.491999H41.635C42.443 0.491999 43.095 0.736 43.591 1.224C44.095 1.712 44.347 2.332 44.347 3.084C44.347 3.844 44.095 4.468 43.591 4.956C43.095 5.436 42.443 5.676 41.635 5.676ZM61.2897 2.484L59.9937 2.892C59.9377 2.564 59.7737 2.264 59.5017 1.992C59.2297 1.72 58.8377 1.584 58.3257 1.584C57.9017 1.584 57.5497 1.704 57.2697 1.944C56.9977 2.184 56.8617 2.472 56.8617 2.808C56.8617 3.392 57.1937 3.756 57.8577 3.9L59.0817 4.152C59.8177 4.296 60.3857 4.588 60.7857 5.028C61.1857 5.468 61.3857 5.992 61.3857 6.6C61.3857 7.304 61.1137 7.912 60.5697 8.424C60.0337 8.928 59.3017 9.18 58.3737 9.18C57.3737 9.18 56.5937 8.92 56.0337 8.4C55.4737 7.872 55.1577 7.26 55.0857 6.564L56.4297 6.18C56.4777 6.66 56.6697 7.064 57.0057 7.392C57.3417 7.72 57.7977 7.884 58.3737 7.884C58.8697 7.884 59.2497 7.776 59.5137 7.56C59.7857 7.336 59.9217 7.052 59.9217 6.708C59.9217 6.428 59.8217 6.188 59.6217 5.988C59.4217 5.78 59.1417 5.636 58.7817 5.556L57.5817 5.304C56.9177 5.168 56.3897 4.892 55.9977 4.476C55.6137 4.06 55.4217 3.54 55.4217 2.916C55.4217 2.204 55.7057 1.592 56.2737 1.08C56.8417 0.568 57.5217 0.312 58.3137 0.312C59.2177 0.312 59.9097 0.532 60.3897 0.972C60.8697 1.404 61.1697 1.908 61.2897 2.484Z" fill="#C64343"/>
</svg>
