<svg width="20" height="20" viewBox="0 0 20 20" fill="none" xmlns="http://www.w3.org/2000/svg">
<g clip-path="url(#clip0)">
<path d="M18.1251 2.5H6.84268C6.27809 2.5 5.74895 2.75026 5.39063 3.18785L0.141007 9.60448C-0.0470024 9.83456 -0.0470024 10.1654 0.141007 10.3955L5.39126 16.8127C5.74889 17.2498 6.27809 17.5 6.84268 17.5H18.125C19.159 17.5 20 16.6589 20 15.625V4.37499C20 3.34103 19.159 2.5 18.1251 2.5ZM18.75 15.625C18.75 15.9698 18.4699 16.2499 18.1251 16.2499H6.84268C6.6541 16.2499 6.47769 16.1663 6.35866 16.0211L1.43252 9.99995L6.35804 3.97946C6.47769 3.83358 6.65404 3.74995 6.84268 3.74995H18.125C18.4699 3.74995 18.75 4.03013 18.75 4.37492C18.75 4.37499 18.75 15.625 18.75 15.625Z" fill="#C64343"/>
<path d="M13.9331 6.43311L11.25 9.11622L8.56688 6.43311L7.68311 7.31688L10.3662 10L7.68311 12.6831L8.56688 13.5669L11.25 10.8838L13.9331 13.5669L14.8169 12.6831L12.1338 10L14.8169 7.31688L13.9331 6.43311Z" fill="#C64343"/>
</g>
<defs>
<clipPath id="clip0">
<rect width="20" height="20" fill="white"/>
</clipPath>
</defs>
</svg>
