<svg width="51" height="21" viewBox="0 0 51 21" fill="none" xmlns="http://www.w3.org/2000/svg">
<path d="M49.3273 4.91302V14.8311H3.17805L6.18883 11.6585L5.01797 10.4247L0 15.7123L5.01797 21L6.18883 19.7662L3.17805 16.5936H51V4.91302H49.3273Z" fill="#C64343"/>
<path d="M13.725 11H9.729V4.619H13.725V5.789H10.971V7.247H13.464V8.354H10.971V9.83H13.725V11ZM22.4123 11H21.1073L18.2093 6.473V11H16.9673V4.619H18.5153L21.1703 8.84V4.619H22.4123V11ZM30.5647 5.798H28.5487V11H27.2977V5.798H25.2817V4.619H30.5647V5.798ZM37.435 11H33.439V4.619H37.435V5.789H34.681V7.247H37.174V8.354H34.681V9.83H37.435V11ZM43.8272 11L42.5762 8.543H41.9282V11H40.6772V4.619H43.1702C43.7822 4.619 44.2742 4.805 44.6462 5.177C45.0182 5.549 45.2042 6.017 45.2042 6.581C45.2042 7.025 45.0812 7.409 44.8352 7.733C44.5952 8.051 44.2652 8.27 43.8452 8.39L45.2132 11H43.8272ZM41.9282 7.472H42.9362C43.2482 7.472 43.4912 7.391 43.6652 7.229C43.8452 7.067 43.9352 6.854 43.9352 6.59C43.9352 6.32 43.8452 6.104 43.6652 5.942C43.4912 5.78 43.2482 5.699 42.9362 5.699H41.9282V7.472Z" fill="#C64343"/>
</svg>
