<svg width="32" height="32" viewBox="0 0 32 32" fill="none" xmlns="http://www.w3.org/2000/svg">
<path fill-rule="evenodd" clip-rule="evenodd" d="M22.6667 8.66667H25.3333C26.8 8.66667 28 9.86667 28 11.3333V27.3333C28 28.8 26.8 30 25.3333 30H6.66667C5.2 30 4 28.8 4 27.3333L4.01333 11.3333C4.01333 9.86667 5.2 8.66667 6.66667 8.66667H9.33333C9.33333 4.98667 12.32 2 16 2C19.68 2 22.6667 4.98667 22.6667 8.66667ZM20 8.66667C20 6.45333 18.2133 4.66667 16 4.66667C13.7867 4.66667 12 6.45333 12 8.66667H20Z" fill="#2D7F61"/>
<rect x="9.33337" y="7.33325" width="14" height="1.33333" fill="white"/>
</svg>
