<svg width="54" height="54" viewBox="0 0 54 54" fill="none" xmlns="http://www.w3.org/2000/svg">
<path fill-rule="evenodd" clip-rule="evenodd" d="M27 54C41.9117 54 54 41.9117 54 27C54 12.0883 41.9117 0 27 0C12.0883 0 0 12.0883 0 27C0 41.9117 12.0883 54 27 54Z" fill="white"/>
<path fill-rule="evenodd" clip-rule="evenodd" d="M33.6667 19.6667H36.3333C37.8 19.6667 39 20.8667 39 22.3333V38.3333C39 39.8 37.8 41 36.3333 41H17.6667C16.2 41 15 39.8 15 38.3333L15.0133 22.3333C15.0133 20.8667 16.2 19.6667 17.6667 19.6667H20.3333C20.3333 15.9867 23.32 13 27 13C30.68 13 33.6667 15.9867 33.6667 19.6667ZM31 19.6667C31 17.4533 29.2133 15.6667 27 15.6667C24.7867 15.6667 23 17.4533 23 19.6667H31Z" fill="#2D7F61"/>
<rect x="20.3334" y="18.3333" width="14" height="1.33333" fill="white"/>
</svg>
