<svg width="18" height="18" viewBox="0 0 18 18" fill="none" xmlns="http://www.w3.org/2000/svg">
<path d="M15.875 0.25H2.125C1.08947 0.25 0.25 1.08947 0.25 2.125V15.875C0.25 16.9105 1.08947 17.75 2.125 17.75H7.48633V11.8004H5.02539V9H7.48633V6.86562C7.48633 4.43789 8.93164 3.09687 11.1453 3.09687C12.2055 3.09687 13.3141 3.28594 13.3141 3.28594V5.66875H12.0926C10.8891 5.66875 10.5137 6.41563 10.5137 7.18164V9H13.2004L12.7707 11.8004H10.5137V17.75H15.875C16.9105 17.75 17.75 16.9105 17.75 15.875V2.125C17.75 1.08947 16.9105 0.25 15.875 0.25V0.25Z" fill="white"/>
<mask id="mask0" mask-type="alpha" maskUnits="userSpaceOnUse" x="0" y="0" width="18" height="18">
<path d="M15.875 0.25H2.125C1.08947 0.25 0.25 1.08947 0.25 2.125V15.875C0.25 16.9105 1.08947 17.75 2.125 17.75H7.48633V11.8004H5.02539V9H7.48633V6.86562C7.48633 4.43789 8.93164 3.09687 11.1453 3.09687C12.2055 3.09687 13.3141 3.28594 13.3141 3.28594V5.66875H12.0926C10.8891 5.66875 10.5137 6.41563 10.5137 7.18164V9H13.2004L12.7707 11.8004H10.5137V17.75H15.875C16.9105 17.75 17.75 16.9105 17.75 15.875V2.125C17.75 1.08947 16.9105 0.25 15.875 0.25V0.25Z" fill="white"/>
</mask>
<g mask="url(#mask0)">
</g>
</svg>
