<svg width="18" height="18" viewBox="0 0 18 18" fill="none" xmlns="http://www.w3.org/2000/svg">
<path fill-rule="evenodd" clip-rule="evenodd" d="M17.6953 5.38672C17.6289 3.98438 17.3086 2.74219 16.2812 1.71875C15.2578 0.695312 14.0156 0.375 12.6133 0.304688C11.168 0.222656 6.83594 0.222656 5.39062 0.304688C3.99219 0.371094 2.75 0.691406 1.72266 1.71484C0.695312 2.73828 0.378906 3.98047 0.308594 5.38281C0.226562 6.82812 0.226562 11.1602 0.308594 12.6055C0.375 14.0078 0.695312 15.25 1.72266 16.2734C2.75 17.2969 3.98828 17.6172 5.39062 17.6875C6.83594 17.7695 11.168 17.7695 12.6133 17.6875C14.0156 17.6211 15.2578 17.3008 16.2812 16.2734C17.3047 15.25 17.625 14.0078 17.6953 12.6055C17.7773 11.1602 17.7773 6.83203 17.6953 5.38672ZM13.6758 5.37109C14.2539 5.37109 14.7227 4.90625 14.7227 4.32422C14.7227 3.74609 14.2539 3.27734 13.6758 3.27734C13.0977 3.27734 12.6289 3.74609 12.6289 4.32422C12.6289 4.90234 13.0938 5.37109 13.6758 5.37109ZM9.00391 4.50781C6.51953 4.50781 4.51562 6.51172 4.51562 8.99609C4.51562 11.4805 6.51953 13.4844 9.00391 13.4844C11.4883 13.4844 13.4922 11.4805 13.4922 8.99609C13.4922 6.51172 11.4883 4.50781 9.00391 4.50781ZM9.00391 11.9141C7.39844 11.9141 6.08594 10.6055 6.08594 8.99609C6.08594 7.38672 7.39453 6.07812 9.00391 6.07812C10.6133 6.07812 11.9219 7.38672 11.9219 8.99609C11.9219 10.6055 10.6094 11.9141 9.00391 11.9141ZM14.1641 15.8203C14.9336 15.5117 15.5234 14.9219 15.8281 14.1562C16.2201 13.1712 16.1983 11.0165 16.1842 9.61979C16.1818 9.38811 16.1797 9.17727 16.1797 8.99609C16.1797 8.81488 16.1818 8.60408 16.1842 8.37247C16.1983 6.97647 16.2201 4.8243 15.8281 3.83594C15.5195 3.06641 14.9297 2.47656 14.1641 2.17188C13.1759 1.782 11.0108 1.80277 9.61447 1.81616C9.38795 1.81833 9.18166 1.82031 9.00391 1.82031C8.82269 1.82031 8.61189 1.81818 8.38028 1.81583C6.98428 1.80169 4.83211 1.77988 3.84375 2.17188C3.07422 2.48047 2.48438 3.07031 2.17969 3.83594C1.78981 4.82407 1.81058 6.9892 1.82397 8.38553C1.82615 8.61205 1.82813 8.81834 1.82813 8.99609C1.82813 9.17731 1.82599 9.38811 1.82364 9.61972C1.8095 11.0157 1.78769 13.1679 2.17969 14.1562C2.48828 14.9258 3.07812 15.5156 3.84375 15.8203C4.83189 16.2102 6.99701 16.1894 8.39334 16.176C8.61987 16.1739 8.82616 16.1719 9.00391 16.1719C9.18512 16.1719 9.39592 16.174 9.62753 16.1764C11.0235 16.1905 13.1757 16.2123 14.1641 15.8203Z" fill="white"/>
<mask id="mask0" mask-type="alpha" maskUnits="userSpaceOnUse" x="0" y="0" width="18" height="18">
<path fill-rule="evenodd" clip-rule="evenodd" d="M17.6953 5.38672C17.6289 3.98438 17.3086 2.74219 16.2812 1.71875C15.2578 0.695312 14.0156 0.375 12.6133 0.304688C11.168 0.222656 6.83594 0.222656 5.39062 0.304688C3.99219 0.371094 2.75 0.691406 1.72266 1.71484C0.695312 2.73828 0.378906 3.98047 0.308594 5.38281C0.226562 6.82812 0.226562 11.1602 0.308594 12.6055C0.375 14.0078 0.695312 15.25 1.72266 16.2734C2.75 17.2969 3.98828 17.6172 5.39062 17.6875C6.83594 17.7695 11.168 17.7695 12.6133 17.6875C14.0156 17.6211 15.2578 17.3008 16.2812 16.2734C17.3047 15.25 17.625 14.0078 17.6953 12.6055C17.7773 11.1602 17.7773 6.83203 17.6953 5.38672ZM13.6758 5.37109C14.2539 5.37109 14.7227 4.90625 14.7227 4.32422C14.7227 3.74609 14.2539 3.27734 13.6758 3.27734C13.0977 3.27734 12.6289 3.74609 12.6289 4.32422C12.6289 4.90234 13.0938 5.37109 13.6758 5.37109ZM9.00391 4.50781C6.51953 4.50781 4.51562 6.51172 4.51562 8.99609C4.51562 11.4805 6.51953 13.4844 9.00391 13.4844C11.4883 13.4844 13.4922 11.4805 13.4922 8.99609C13.4922 6.51172 11.4883 4.50781 9.00391 4.50781ZM9.00391 11.9141C7.39844 11.9141 6.08594 10.6055 6.08594 8.99609C6.08594 7.38672 7.39453 6.07812 9.00391 6.07812C10.6133 6.07812 11.9219 7.38672 11.9219 8.99609C11.9219 10.6055 10.6094 11.9141 9.00391 11.9141ZM14.1641 15.8203C14.9336 15.5117 15.5234 14.9219 15.8281 14.1562C16.2201 13.1712 16.1983 11.0165 16.1842 9.61979C16.1818 9.38811 16.1797 9.17727 16.1797 8.99609C16.1797 8.81488 16.1818 8.60408 16.1842 8.37247C16.1983 6.97647 16.2201 4.8243 15.8281 3.83594C15.5195 3.06641 14.9297 2.47656 14.1641 2.17188C13.1759 1.782 11.0108 1.80277 9.61447 1.81616C9.38795 1.81833 9.18166 1.82031 9.00391 1.82031C8.82269 1.82031 8.61189 1.81818 8.38028 1.81583C6.98428 1.80169 4.83211 1.77988 3.84375 2.17188C3.07422 2.48047 2.48438 3.07031 2.17969 3.83594C1.78981 4.82407 1.81058 6.9892 1.82397 8.38553C1.82615 8.61205 1.82813 8.81834 1.82813 8.99609C1.82813 9.17731 1.82599 9.38811 1.82364 9.61972C1.8095 11.0157 1.78769 13.1679 2.17969 14.1562C2.48828 14.9258 3.07812 15.5156 3.84375 15.8203C4.83189 16.2102 6.99701 16.1894 8.39334 16.176C8.61987 16.1739 8.82616 16.1719 9.00391 16.1719C9.18512 16.1719 9.39592 16.174 9.62753 16.1764C11.0235 16.1905 13.1757 16.2123 14.1641 15.8203Z" fill="white"/>
</mask>
<g mask="url(#mask0)">
</g>
</svg>
