<svg width="32" height="32" viewBox="0 0 32 32" fill="none" xmlns="http://www.w3.org/2000/svg">
<mask id="mask0" mask-type="alpha" maskUnits="userSpaceOnUse" x="4" y="4" width="24" height="24">
<path fill-rule="evenodd" clip-rule="evenodd" d="M27.5937 11.1823C27.5051 9.3125 27.078 7.65625 25.7083 6.29167C24.3437 4.92708 22.6874 4.5 20.8176 4.40625C18.8905 4.29688 13.1145 4.29688 11.1874 4.40625C9.32283 4.49479 7.66658 4.92188 6.29679 6.28646C4.927 7.65104 4.50513 9.30729 4.41138 11.1771C4.302 13.1042 4.302 18.8802 4.41138 20.8073C4.49992 22.6771 4.927 24.3333 6.29679 25.6979C7.66658 27.0625 9.31763 27.4896 11.1874 27.5833C13.1145 27.6927 18.8905 27.6927 20.8176 27.5833C22.6874 27.4948 24.3437 27.0677 25.7083 25.6979C27.0728 24.3333 27.4999 22.6771 27.5937 20.8073C27.703 18.8802 27.703 13.1094 27.5937 11.1823ZM22.2343 11.1615C23.0051 11.1615 23.6301 10.5417 23.6301 9.76562C23.6301 8.99479 23.0051 8.36979 22.2343 8.36979C21.4635 8.36979 20.8385 8.99479 20.8385 9.76562C20.8385 10.5365 21.4583 11.1615 22.2343 11.1615ZM16.0051 10.0104C12.6926 10.0104 10.0208 12.6823 10.0208 15.9948C10.0208 19.3073 12.6926 21.9792 16.0051 21.9792C19.3176 21.9792 21.9895 19.3073 21.9895 15.9948C21.9895 12.6823 19.3176 10.0104 16.0051 10.0104ZM16.0051 19.8854C13.8645 19.8854 12.1145 18.1406 12.1145 15.9948C12.1145 13.849 13.8593 12.1042 16.0051 12.1042C18.151 12.1042 19.8958 13.849 19.8958 15.9948C19.8958 18.1406 18.1458 19.8854 16.0051 19.8854ZM22.8853 25.0937C23.9114 24.6822 24.6978 23.8958 25.1041 22.8749C25.6268 21.5615 25.5977 18.6886 25.5788 16.8263C25.5757 16.5174 25.5728 16.2363 25.5728 15.9947C25.5728 15.7531 25.5757 15.472 25.5788 15.1632C25.5977 13.3019 25.6267 10.4323 25.1041 9.11451C24.6926 8.08847 23.9062 7.30201 22.8853 6.89576C21.5678 6.37592 18.681 6.40361 16.8192 6.42147C16.5172 6.42437 16.2421 6.42701 16.0051 6.42701C15.7635 6.42701 15.4824 6.42416 15.1736 6.42103C13.3123 6.40217 10.4427 6.3731 9.12492 6.89576C8.09887 7.30722 7.31241 8.09368 6.90616 9.11451C6.38633 10.432 6.41402 13.3189 6.43188 15.1806C6.43478 15.4827 6.43741 15.7577 6.43741 15.9947C6.43741 16.2363 6.43457 16.5174 6.43144 16.8262C6.41258 18.6875 6.38351 21.5571 6.90616 22.8749C7.31762 23.901 8.10408 24.6874 9.12492 25.0937C10.4424 25.6135 13.3293 25.5858 15.191 25.568C15.4931 25.5651 15.7681 25.5624 16.0051 25.5624C16.2467 25.5624 16.5278 25.5653 16.8366 25.5684C18.698 25.5873 21.5675 25.6163 22.8853 25.0937Z" fill="white"/>
</mask>
<g mask="url(#mask0)">
<rect width="32" height="32" fill="black"/>
<mask id="mask1" mask-type="alpha" maskUnits="userSpaceOnUse" x="0" y="0" width="32" height="32">
<rect width="32" height="32" fill="white"/>
</mask>
<g mask="url(#mask1)">
</g>
</g>
</svg>
