<svg width="18" height="18" viewBox="0 0 18 18" fill="none" xmlns="http://www.w3.org/2000/svg">
<path fill-rule="evenodd" clip-rule="evenodd" d="M1.49609 0.25H16.5C17.1875 0.25 17.75 0.816406 17.75 1.51172V16.4883C17.75 17.1836 17.1875 17.75 16.5 17.75H1.49609C0.808594 17.75 0.25 17.1836 0.25 16.4883V1.51172C0.25 0.816406 0.808594 0.25 1.49609 0.25ZM5.53906 15.25H5.54297V6.89844H2.94531V15.25H5.53906ZM4.24219 5.75781C3.41016 5.75781 2.73828 5.08203 2.73828 4.25391C2.73828 3.42578 3.41016 2.75 4.24219 2.75C5.07031 2.75 5.74609 3.42578 5.74609 4.25391C5.74609 5.08594 5.07422 5.75781 4.24219 5.75781ZM12.668 15.25H15.2617V10.6719C15.2617 8.42188 14.7734 6.69141 12.1484 6.69141C10.8867 6.69141 10.0391 7.38281 9.69141 8.03906H9.65625V6.89844H7.16797V15.25H9.76172V11.1172C9.76172 10.0273 9.96875 8.97266 11.3203 8.97266C12.6484 8.97266 12.668 10.2188 12.668 11.1875V15.25Z" fill="white"/>
<mask id="mask0" mask-type="alpha" maskUnits="userSpaceOnUse" x="0" y="0" width="18" height="18">
<path fill-rule="evenodd" clip-rule="evenodd" d="M1.49609 0.25H16.5C17.1875 0.25 17.75 0.816406 17.75 1.51172V16.4883C17.75 17.1836 17.1875 17.75 16.5 17.75H1.49609C0.808594 17.75 0.25 17.1836 0.25 16.4883V1.51172C0.25 0.816406 0.808594 0.25 1.49609 0.25ZM5.53906 15.25H5.54297V6.89844H2.94531V15.25H5.53906ZM4.24219 5.75781C3.41016 5.75781 2.73828 5.08203 2.73828 4.25391C2.73828 3.42578 3.41016 2.75 4.24219 2.75C5.07031 2.75 5.74609 3.42578 5.74609 4.25391C5.74609 5.08594 5.07422 5.75781 4.24219 5.75781ZM12.668 15.25H15.2617V10.6719C15.2617 8.42188 14.7734 6.69141 12.1484 6.69141C10.8867 6.69141 10.0391 7.38281 9.69141 8.03906H9.65625V6.89844H7.16797V15.25H9.76172V11.1172C9.76172 10.0273 9.96875 8.97266 11.3203 8.97266C12.6484 8.97266 12.668 10.2188 12.668 11.1875V15.25Z" fill="white"/>
</mask>
<g mask="url(#mask0)">
</g>
</svg>
