<svg width="24" height="24" viewBox="0 0 24 24" fill="none" xmlns="http://www.w3.org/2000/svg">
<path fill-rule="evenodd" clip-rule="evenodd" d="M16.5792 14.9497H15.721L15.4168 14.6564C16.4814 13.418 17.1224 11.8102 17.1224 10.0612C17.1224 6.16123 13.9611 3 10.0612 3C6.16123 3 3 6.16123 3 10.0612C3 13.9611 6.16123 17.1224 10.0612 17.1224C11.8102 17.1224 13.418 16.4814 14.6564 15.4168L14.9497 15.721V16.5792L20.3814 22L22 20.3814L16.5792 14.9497ZM10 15C7.23333 15 5 12.7667 5 10C5 7.23333 7.23333 5 10 5C12.7667 5 15 7.23333 15 10C15 12.7667 12.7667 15 10 15Z" fill="black"/>
</svg>
