<svg width="32" height="32" viewBox="0 0 32 32" fill="none" xmlns="http://www.w3.org/2000/svg">
<mask id="mask0" mask-type="alpha" maskUnits="userSpaceOnUse" x="2" y="5" width="28" height="22">
<path d="M26.5923 10.5685C26.6092 10.8054 26.6092 11.0423 26.6092 11.2792C26.6092 18.5042 21.1101 26.8291 11.0593 26.8291C7.96284 26.8291 5.08638 25.9323 2.66675 24.3756C3.1067 24.4264 3.52966 24.4433 3.98654 24.4433C6.54149 24.4433 8.89347 23.5804 10.7716 22.1083C8.36894 22.0575 6.35539 20.4839 5.66164 18.3181C6.00008 18.3688 6.33847 18.4027 6.69383 18.4027C7.18451 18.4027 7.67524 18.335 8.13206 18.2166C5.62784 17.7089 3.74961 15.5093 3.74961 12.8528V12.7851C4.47716 13.1912 5.32326 13.445 6.21998 13.4788C4.74789 12.4974 3.78347 10.8223 3.78347 8.9272C3.78347 7.91199 4.05414 6.98137 4.52795 6.16918C7.21831 9.48559 11.2623 11.6514 15.797 11.8883C15.7124 11.4822 15.6616 11.0592 15.6616 10.6362C15.6616 7.62434 18.0982 5.1709 21.1269 5.1709C22.7005 5.1709 24.1218 5.83079 25.1201 6.89678C26.3553 6.65991 27.5397 6.20303 28.5888 5.57699C28.1827 6.84605 27.3198 7.91204 26.1861 8.58881C27.286 8.47043 28.352 8.16579 29.3333 7.74283C28.5889 8.82569 27.6583 9.79012 26.5923 10.5685Z" fill="white"/>
</mask>
<g mask="url(#mask0)">
<rect width="32" height="32" fill="black"/>
<mask id="mask1" mask-type="alpha" maskUnits="userSpaceOnUse" x="0" y="0" width="32" height="32">
<rect width="32" height="32" fill="white"/>
</mask>
<g mask="url(#mask1)">
</g>
</g>
</svg>
